# xmcd
#
# Track frame offsets:
#	150
#	16175
#	35175
#	71667
#	97277
#	117989
#	154425
#	165333
#	193260
#	241765
#	269834
#
# Disc length: 4031 seconds
#
# Revision: 0
# Processed by: cddbd v1.4PL0 Copyright (c) Steve Scherf et al.
# Submitted via: dBpowerAMP V4.0
#
DISCID=a10fbd0b
DTITLE=Mark Arshak Band - Bootleg Blues
DYEAR=2002
DGENRE=Blues
TTITLE0=Three Kings
TTITLE1=Sissy Lee
TTITLE2=Rope Swing
TTITLE3=Julie Brown
TTITLE4=Flesh and Bone
TTITLE5=Suicide Blues
TTITLE6=Let's Have a Party
TTITLE7=Little Bird Blue
TTITLE8=Evil in the Night
TTITLE9=Lemonade Boogie
TTITLE10=Call the Boss
EXTD=
EXTT0=
EXTT1=
EXTT2=
EXTT3=
EXTT4=
EXTT5=
EXTT6=
EXTT7=
EXTT8=
EXTT9=
EXTT10=
PLAYORDER=
